<svg width="320" height="32" viewBox="0 0 320 32" fill="none" xmlns="http://www.w3.org/2000/svg">
<path d="M41 16H0" stroke="#D0D0D8"/>
<path d="M320 16H279" stroke="#D0D0D8"/>
<path d="M61.4944 0.5H258.506C261.474 0.5 264.328 1.64809 266.47 3.70405L279.278 16L266.47 28.296C264.328 30.3519 261.474 31.5 258.506 31.5H61.4944C58.5256 31.5 55.6719 30.3519 53.5303 28.296L40.722 16L53.5303 3.70404C55.6719 1.64809 58.5256 0.5 61.4944 0.5Z" fill="white" stroke="#D0D0D8"/>
<path d="M137.301 22.2727H138.116V21.1641C140.204 21.0199 141.378 19.7869 141.378 18.2358C141.378 16.3267 139.568 15.7102 138.514 15.4318L138.116 15.3224V11.7876C139.17 11.892 139.936 12.4588 140.045 13.3636H141.238C141.189 11.9119 139.916 10.8082 138.116 10.6889V9.54545H137.301V10.7038C135.596 10.8778 134.318 11.9616 134.318 13.5227C134.318 14.8949 135.312 15.7102 136.903 16.1676L137.301 16.282V20.0455C136.257 19.9361 135.402 19.3991 135.312 18.375H134.04C134.154 19.9411 135.347 21.0348 137.301 21.1641V22.2727ZM138.116 20.0455V16.5156L138.156 16.5256C139.23 16.8239 140.184 17.2017 140.184 18.2159C140.184 19.2152 139.319 19.9112 138.116 20.0455ZM137.301 15.1037C136.545 14.8899 135.511 14.4723 135.511 13.4631C135.511 12.603 136.207 11.9467 137.301 11.8026V15.1037ZM146.805 10.8182H145.572L143.027 12.5085V13.7614L145.513 12.1108H145.572V21H146.805V10.8182ZM153.114 21.1392C155.173 21.1641 156.515 19.6129 156.515 17.7188C156.515 15.75 155.058 14.3381 153.313 14.3381C152.264 14.3381 151.364 14.8501 150.808 15.6903H150.728C150.733 13.2095 151.697 11.7727 153.273 11.7727C154.347 11.7727 154.994 12.4489 155.222 13.3636H156.435C156.187 11.7827 154.984 10.679 153.273 10.679C150.982 10.679 149.575 12.7074 149.575 16.3068C149.575 20.0703 151.444 21.1193 153.114 21.1392ZM153.114 20.0455C151.837 20.0455 150.902 18.9567 150.907 17.7386C150.912 16.5206 151.891 15.4318 153.154 15.4318C154.402 15.4318 155.322 16.456 155.322 17.7188C155.322 19.0114 154.362 20.0455 153.114 20.0455ZM159.761 19.608H158.489L158.429 20.1648C158.285 21.5121 158.001 22.8544 157.872 23.4858H158.767C159.006 22.8097 159.513 21.2784 159.682 20.1449L159.761 19.608ZM164.881 21.1392C167.128 21.1392 168.421 19.2351 168.421 15.9091C168.421 12.608 167.108 10.679 164.881 10.679C162.654 10.679 161.341 12.608 161.341 15.9091C161.341 19.2351 162.634 21.1392 164.881 21.1392ZM164.881 20.0455C163.399 20.0455 162.534 18.5589 162.534 15.9091C162.534 13.2642 163.409 11.7528 164.881 11.7528C166.352 11.7528 167.227 13.2642 167.227 15.9091C167.227 18.5589 166.362 20.0455 164.881 20.0455ZM173.631 21.1392C175.878 21.1392 177.171 19.2351 177.171 15.9091C177.171 12.608 175.858 10.679 173.631 10.679C171.404 10.679 170.091 12.608 170.091 15.9091C170.091 19.2351 171.384 21.1392 173.631 21.1392ZM173.631 20.0455C172.149 20.0455 171.284 18.5589 171.284 15.9091C171.284 13.2642 172.159 11.7528 173.631 11.7528C175.102 11.7528 175.977 13.2642 175.977 15.9091C175.977 18.5589 175.112 20.0455 173.631 20.0455ZM182.381 21.1392C184.628 21.1392 185.921 19.2351 185.921 15.9091C185.921 12.608 184.608 10.679 182.381 10.679C180.154 10.679 178.841 12.608 178.841 15.9091C178.841 19.2351 180.134 21.1392 182.381 21.1392ZM182.381 20.0455C180.899 20.0455 180.034 18.5589 180.034 15.9091C180.034 13.2642 180.909 11.7528 182.381 11.7528C183.852 11.7528 184.727 13.2642 184.727 15.9091C184.727 18.5589 183.862 20.0455 182.381 20.0455Z" fill="#1C1C21"/>
</svg>
